# xmcd
#
# Track frame offsets:
#	150
#	25071
#	61254
#	85401
#	118272
#	153495
#	167018
#	192693
#	215361
#	239902
#	275223
#	291896
#
# Disc length: 4553 seconds
#
# Revision: 1
# Processed by: cddbd v1.5.2PL0 Copyright (c) Steve Scherf et al.
# Submitted via: audiograbber 1.83.01
#
DISCID=bd11c70c
DTITLE=Various Artist - TRUE BLUE: 75 Years Of Blue Note Records - Disk 1/4
DYEAR=2014
DGENRE=Blues
TTITLE0=Herbie Hancock - Cantaloupe Island
TTITLE1=Joe Henderson - Blue Bossa
TTITLE2=Eliane Elias - The Girl From Ipanema
TTITLE3=Horace Silver - Song For My Father
TTITLE4=Blue Mitchell - Fungii Mama
TTITLE5=Thelonius Monk - Straight No Chaser
TTITLE6=Hank Mobley - Remember
TTITLE7=Cassandra Wilson - Wouldn't it Be Loverly
TTITLE8=Joe Lovano - Passport
TTITLE9=Sonny Clark - Melody For C
TTITLE10=Kurt Elling - Never My Love
TTITLE11=Cannonball Adderley - Autumn Leaves
EXTD=
EXTT0=
EXTT1=
EXTT2=
EXTT3=
EXTT4=
EXTT5=
EXTT6=
EXTT7=
EXTT8=
EXTT9=
EXTT10=
EXTT11=
PLAYORDER=
